<svg width="341" height="366" viewBox="0 0 341 366" fill="none" xmlns="http://www.w3.org/2000/svg">
<path d="M170.43 23.4653C175.16 23.4653 178.136 23.4613 180.738 23.5531C255.049 26.1767 314.683 85.8108 317.307 160.122C317.399 162.724 317.395 165.7 317.395 170.43V294.88C317.394 320.956 296.256 342.095 270.18 342.095C256.075 342.095 245.172 335.594 237.769 329.463C230.551 323.487 224.622 316.119 220.705 311.288C220.597 311.155 220.537 311.106 220.532 311.103C220.53 311.102 220.523 311.097 220.511 311.091C220.484 311.078 220.323 311.003 219.962 310.924C219.592 310.844 218.938 310.746 217.93 310.746C216.684 310.746 215.974 310.896 215.664 310.982C215.467 311.036 215.367 311.081 215.333 311.099C215.423 311.04 215.167 311.149 214.707 311.965C211.272 318.056 206.319 325.081 199.554 330.835C192.685 336.678 182.823 342.095 170.43 342.095C158.037 342.095 148.174 336.678 141.306 330.835C134.54 325.081 129.588 318.056 126.152 311.965C125.693 311.151 125.437 311.041 125.525 311.099C125.49 311.081 125.391 311.036 125.195 310.982C124.886 310.896 124.176 310.746 122.93 310.746C121.922 310.746 121.267 310.844 120.897 310.924C120.536 311.003 120.375 311.078 120.349 311.091C120.336 311.097 120.33 311.102 120.327 311.103C120.323 311.106 120.263 311.155 120.154 311.288C116.238 316.119 110.308 323.487 103.091 329.463C95.6872 335.594 84.7843 342.095 70.6797 342.095C44.6036 342.095 23.4649 320.956 23.4648 294.88V170.43C23.4648 165.7 23.4609 162.724 23.5527 160.122C26.1763 85.8108 85.8104 26.1767 160.121 23.5531C162.724 23.4613 165.699 23.4653 170.43 23.4653Z" fill="currentBackgroundColor" stroke="currentColor" stroke-width="46.93" stroke-linejoin="round"/>
<path d="M170.43 34.5805C175.255 34.5805 177.989 34.5783 180.346 34.6615C248.826 37.0792 303.781 92.0341 306.198 160.514C306.281 162.871 306.279 165.605 306.279 170.43V294.88C306.279 314.818 290.117 330.98 270.18 330.98C259.65 330.98 251.189 326.146 244.857 320.903C238.624 315.741 233.356 309.243 229.338 304.288C228.248 302.943 226.955 301.858 225.334 301.078C223.719 300.3 221.378 299.63 217.93 299.63C213.692 299.63 211.079 300.638 209.389 301.706C207.627 302.82 206.196 304.429 205.025 306.505C201.997 311.876 197.81 317.728 192.353 322.37C186.841 327.057 179.438 330.98 170.43 330.98C161.422 330.98 154.018 327.057 148.507 322.37C143.05 317.728 138.863 311.876 135.834 306.505C134.663 304.429 133.232 302.82 131.471 301.706C129.78 300.638 127.168 299.63 122.93 299.63C119.482 299.63 117.14 300.3 115.525 301.078C113.905 301.858 112.612 302.943 111.521 304.288C107.503 309.243 102.235 315.741 96.002 320.903C89.6706 326.146 81.2098 330.98 70.6797 330.98C50.7423 330.98 34.5802 314.818 34.5801 294.88V170.43C34.5801 165.605 34.5779 162.871 34.6611 160.514C37.0788 92.0341 92.0337 37.0792 160.514 34.6615C162.871 34.5783 165.604 34.5805 170.43 34.5805Z" fill="currentColor" stroke="currentBackgroundColor" stroke-width="24.7" stroke-linejoin="round"/>
<ellipse cx="125.207" cy="136.438" rx="24.1793" ry="29.4048" fill="currentBackgroundColor"/>
<ellipse cx="215.64" cy="136.438" rx="24.1793" ry="29.4048" fill="currentBackgroundColor"/>
</svg>
